<svg width="1080" height="1080" viewBox="0 0 1080 1080" fill="none" xmlns="http://www.w3.org/2000/svg">
<circle cx="540" cy="540" r="500" fill="url(#paint0_linear)"/>
<path d="M568.683 470.746C597.983 462.895 624.51 461.826 648.265 467.539C672.471 473.132 692.64 484.395 708.773 501.33C724.785 517.814 736.112 538.452 742.755 563.244C753.022 601.56 752.686 635.468 741.75 664.971C731.264 694.353 713.392 718.708 688.134 738.037C662.755 756.916 633.387 770.824 600.031 779.762C557.659 791.115 519.862 795.204 486.642 792.027C453.751 788.279 421.93 774.098 391.178 749.485L505.392 634.817C511.994 650.441 520.153 661.058 529.869 666.668C539.465 671.826 553.503 671.93 571.984 666.978C586.86 662.992 597.613 656.246 604.245 646.738C610.877 637.231 612.261 625.266 608.396 610.841C605.014 598.22 598.3 589.39 588.254 584.352C578.207 579.313 564.62 579.089 547.49 583.679C524.501 589.839 508.536 599.673 499.594 613.181L378.851 622.343L341.387 363.521L638.216 283.986L669.196 399.607L482.579 449.611L488.814 497.22C489.845 504.673 490.381 512.985 490.422 522.153L491.098 521.972C496.225 510.452 505.847 500.386 519.965 491.771C533.963 482.706 550.202 475.698 568.683 470.746Z" fill="white"/>
<defs>
<linearGradient id="paint0_linear" x1="40" y1="40" x2="1040" y2="1040" gradientUnits="userSpaceOnUse">
<stop stop-color="#D62976"/>
<stop offset="0.473958" stop-color="#FF9191"/>
<stop offset="1" stop-color="#FEDA75"/>
</linearGradient>
</defs>
</svg>
